<svg width="48" height="48" viewBox="0 0 48 48" fill="none" xmlns="http://www.w3.org/2000/svg">
<rect width="48" height="48" rx="8" fill="#0062FF"/>
<path d="M12 28C16.4183 28 20 24.4183 20 20V8C20 3.58172 16.4183 0 12 0C7.58172 0 4 3.58172 4 8V20C4 24.4183 7.58172 28 12 28Z" transform="translate(4 6)" fill="white"/>
<path d="M26 20V21C26 28.16 20.16 34 13 34H11C3.84 34 -2 28.16 -2 21V20" transform="translate(11 6)" stroke="white" stroke-width="4" stroke-linecap="round"/>
<path d="M12 34V42M4 42H20" transform="translate(11 6)" stroke="white" stroke-width="4" stroke-linecap="round"/>
</svg>
